<svg width="260" height="78" viewBox="0 0 260 78" fill="none" xmlns="http://www.w3.org/2000/svg">
<rect y="46.8" width="33.28" height="31.2" fill="#7877FF"/>
<rect x="51.9995" y="46.8" width="33.28" height="31.2" fill="#7877FF"/>
<rect x="19.7598" y="30.16" width="44.72" height="32.24" fill="#7877FF"/>
<rect y="30.16" width="13.52" height="32.24" fill="#7877FF"/>
<rect x="71.7598" y="30.16" width="13.52" height="32.24" fill="#7877FF"/>
<rect x="83.1997" width="15.6" height="35.36" transform="rotate(90 83.1997 0)" fill="#7877FF"/>
<rect x="33.2798" width="18.72" height="30.16" fill="#7877FF"/>
<path d="M109.717 49.1008V35.6845H115.436C116.16 35.6845 116.78 35.8214 117.297 36.0952C117.814 36.369 118.214 36.7536 118.499 37.2491C118.783 37.7315 118.925 38.2856 118.925 38.9115C118.925 39.5764 118.809 40.124 118.576 40.5543C118.344 40.9845 118.046 41.3235 117.685 41.5713C117.323 41.806 116.954 41.9755 116.58 42.0798V42.1971C116.838 42.2362 117.116 42.321 117.413 42.4513C117.723 42.5817 118.014 42.7708 118.285 43.0185C118.57 43.2662 118.796 43.5987 118.964 44.0159C119.145 44.4201 119.235 44.9221 119.235 45.5219C119.235 46.1998 119.074 46.8126 118.751 47.3602C118.441 47.8948 118.008 48.3186 117.452 48.6315C116.896 48.9444 116.263 49.1008 115.552 49.1008H109.717ZM111.927 47.2038H114.951C115.339 47.2038 115.681 47.1125 115.979 46.93C116.276 46.7474 116.502 46.4997 116.657 46.1868C116.825 45.8739 116.909 45.5349 116.909 45.1698C116.909 44.7526 116.819 44.394 116.638 44.0942C116.47 43.7943 116.237 43.5661 115.94 43.4097C115.643 43.2402 115.313 43.1554 114.951 43.1554H111.927V47.2038ZM111.927 41.3561H114.738C115.1 41.3561 115.423 41.2714 115.707 41.1019C115.992 40.9324 116.211 40.6977 116.366 40.3978C116.534 40.0849 116.618 39.7394 116.618 39.3613C116.618 38.7615 116.47 38.2987 116.172 37.9727C115.888 37.6468 115.468 37.4838 114.912 37.4838H111.927V41.3561Z" fill="black"/>
<path d="M128.94 49.2964C127.88 49.2964 127.034 49.0031 126.4 48.4163C125.767 47.8166 125.45 46.9235 125.45 45.737V39.107H127.718V45.3263C127.718 46.0825 127.893 46.6497 128.242 47.0278C128.604 47.3928 129.088 47.5754 129.696 47.5754C130.109 47.5754 130.478 47.4776 130.801 47.282C131.124 47.0734 131.376 46.7931 131.557 46.441C131.738 46.076 131.828 45.6718 131.828 45.2285V39.107H134.077V47.1451C134.077 47.3537 134.122 47.5037 134.212 47.5949C134.303 47.6862 134.432 47.7318 134.6 47.7318C134.716 47.7318 134.833 47.7188 134.949 47.6927C135.078 47.6666 135.208 47.608 135.337 47.5167V48.9248C135.169 49.0422 134.943 49.1334 134.658 49.1986C134.387 49.2638 134.116 49.2964 133.844 49.2964C133.366 49.2964 132.998 49.2312 132.739 49.1008C132.494 48.9705 132.326 48.7879 132.235 48.5532C132.145 48.3186 132.08 48.0513 132.041 47.7514C131.86 48.0773 131.628 48.3577 131.343 48.5924C131.059 48.814 130.717 48.9835 130.316 49.1008C129.915 49.2312 129.457 49.2964 128.94 49.2964Z" fill="black"/>
<path d="M145.041 49.1008V40.8476H141.571V39.107H147.29V49.1008H145.041ZM141.571 49.1008V47.3994H150.547V49.1008H141.571ZM145.002 37.0731V35.0587H147.018V37.0731H145.002Z" fill="black"/>
<path d="M160.387 49.2964C159.676 49.2964 159.023 49.1269 158.429 48.7879C157.834 48.4359 157.356 47.8948 156.994 47.1647C156.645 46.4215 156.471 45.4632 156.471 44.2897V44.0746C156.471 42.9533 156.645 42.008 156.994 41.2388C157.356 40.4695 157.834 39.8893 158.429 39.4982C159.036 39.107 159.708 38.9115 160.445 38.9115C161.078 38.9115 161.627 39.0223 162.092 39.2439C162.571 39.4656 162.945 39.7655 163.217 40.1436V35.0196H165.465V49.1008H163.643L163.411 47.7514C163.126 48.2468 162.732 48.6315 162.228 48.9053C161.724 49.166 161.11 49.2964 160.387 49.2964ZM160.968 47.7318C161.614 47.7318 162.151 47.4906 162.577 47.0082C163.004 46.5258 163.217 45.7891 163.217 44.7982V43.4097C163.217 42.4188 163.004 41.6821 162.577 41.1997C162.151 40.7173 161.614 40.4761 160.968 40.4761C160.322 40.4761 159.786 40.7238 159.359 41.2192C158.946 41.7016 158.739 42.4318 158.739 43.4097V44.7787C158.739 45.7696 158.946 46.5128 159.359 47.0082C159.786 47.4906 160.322 47.7318 160.968 47.7318Z" fill="black"/>
<path d="M176.042 49.1008V36.7406H172.553V35H178.271V49.1008H176.042ZM172.553 49.1008V47.3994H181.528V49.1008H172.553Z" fill="black"/>
<path d="M192.415 49.2964C191.717 49.2964 191.065 49.1921 190.457 48.9835C189.863 48.7618 189.339 48.4163 188.887 47.947C188.448 47.4776 188.099 46.8713 187.84 46.1281C187.595 45.3719 187.472 44.4592 187.472 43.3901V41.4148C187.472 40.3457 187.595 39.433 187.84 38.6768C188.086 37.9206 188.435 37.3078 188.887 36.8384C189.339 36.369 189.869 36.03 190.477 35.8214C191.097 35.5998 191.775 35.4889 192.512 35.4889H192.88C193.539 35.4889 194.153 35.5867 194.722 35.7823C195.303 35.9779 195.814 36.2777 196.253 36.6819C196.706 37.0731 197.055 37.5816 197.3 38.2074C197.559 38.8202 197.688 39.5503 197.688 40.3978H195.439C195.439 39.7198 195.329 39.1592 195.11 38.7159C194.89 38.2726 194.573 37.9401 194.16 37.7185C193.759 37.4838 193.262 37.3664 192.667 37.3664C192.137 37.3664 191.665 37.4707 191.252 37.6794C190.838 37.888 190.509 38.253 190.263 38.7746C190.031 39.2831 189.914 40.0002 189.914 40.9259V43.8399C189.914 44.5309 189.985 45.1111 190.128 45.5805C190.27 46.0369 190.464 46.4019 190.709 46.6757C190.968 46.9365 191.265 47.1256 191.601 47.2429C191.937 47.3602 192.299 47.4189 192.686 47.4189C193.19 47.4189 193.656 47.3342 194.082 47.1647C194.509 46.9821 194.845 46.6692 195.09 46.2259C195.349 45.7696 195.478 45.1372 195.478 44.3289V43.6443H192.357V41.9624H197.688V46.5584C197.688 47.106 197.701 47.5819 197.727 47.9861C197.752 48.3903 197.785 48.7619 197.823 49.1008H196.447L196.04 47.458C195.704 48.0578 195.219 48.5141 194.586 48.827C193.953 49.14 193.281 49.2964 192.57 49.2964H192.415Z" fill="black"/>
<path d="M207.412 49.2964C206.352 49.2964 205.505 49.0031 204.872 48.4163C204.239 47.8166 203.922 46.9235 203.922 45.737V39.107H206.19V45.3263C206.19 46.0825 206.365 46.6497 206.714 47.0278C207.076 47.3928 207.56 47.5754 208.168 47.5754C208.581 47.5754 208.949 47.4776 209.272 47.282C209.596 47.0734 209.848 46.7931 210.029 46.441C210.209 46.076 210.3 45.6718 210.3 45.2285V39.107H212.549V47.1451C212.549 47.3537 212.594 47.5037 212.684 47.5949C212.775 47.6862 212.904 47.7318 213.072 47.7318C213.188 47.7318 213.305 47.7188 213.421 47.6927C213.55 47.6666 213.679 47.608 213.809 47.5167V48.9248C213.641 49.0422 213.414 49.1334 213.13 49.1986C212.859 49.2638 212.587 49.2964 212.316 49.2964C211.838 49.2964 211.469 49.2312 211.211 49.1008C210.965 48.9705 210.797 48.7879 210.707 48.5532C210.617 48.3186 210.552 48.0513 210.513 47.7514C210.332 48.0773 210.1 48.3577 209.815 48.5924C209.531 48.814 209.188 48.9835 208.788 49.1008C208.387 49.2312 207.928 49.2964 207.412 49.2964Z" fill="black"/>
<path d="M223.513 49.1008V40.8476H220.043V39.107H225.762V49.1008H223.513ZM220.043 49.1008V47.3994H229.018V49.1008H220.043ZM223.474 37.0731V35.0587H225.49V37.0731H223.474Z" fill="black"/>
<path d="M238.858 49.2964C238.148 49.2964 237.495 49.1269 236.901 48.7879C236.306 48.4359 235.828 47.8948 235.466 47.1647C235.117 46.4215 234.943 45.4632 234.943 44.2897V44.0746C234.943 42.9533 235.117 42.008 235.466 41.2388C235.828 40.4695 236.306 39.8893 236.901 39.4982C237.508 39.107 238.18 38.9115 238.917 38.9115C239.55 38.9115 240.099 39.0223 240.564 39.2439C241.042 39.4656 241.417 39.7655 241.689 40.1436V35.0196H243.937V49.1008H242.115L241.882 47.7514C241.598 48.2468 241.204 48.6315 240.7 48.9053C240.196 49.166 239.582 49.2964 238.858 49.2964ZM239.44 47.7318C240.086 47.7318 240.622 47.4906 241.049 47.0082C241.475 46.5258 241.689 45.7891 241.689 44.7982V43.4097C241.689 42.4188 241.475 41.6821 241.049 41.1997C240.622 40.7173 240.086 40.4761 239.44 40.4761C238.794 40.4761 238.257 40.7238 237.831 41.2192C237.417 41.7016 237.211 42.4318 237.211 43.4097V44.7787C237.211 45.7696 237.417 46.5128 237.831 47.0082C238.257 47.4906 238.794 47.7318 239.44 47.7318Z" fill="black"/>
<path d="M254.514 49.1008V36.7406H251.025V35H256.743V49.1008H254.514ZM251.025 49.1008V47.3994H260V49.1008H251.025Z" fill="black"/>
<path d="M114.06 76C113.336 76 112.664 75.8957 112.043 75.6871C111.436 75.4654 110.9 75.1199 110.434 74.6505C109.982 74.1812 109.627 73.5749 109.368 72.8317C109.123 72.0755 109 71.1628 109 70.0937V68.1184C109 67.0493 109.129 66.1366 109.388 65.3804C109.646 64.6241 110.002 64.0114 110.454 63.542C110.919 63.0726 111.455 62.7336 112.063 62.525C112.67 62.3033 113.329 62.1925 114.04 62.1925H114.389C115.384 62.1925 116.237 62.3946 116.948 62.7988C117.672 63.1899 118.227 63.7832 118.615 64.5785C119.003 65.3738 119.197 66.3713 119.197 67.5708H116.929C116.929 66.7624 116.845 66.104 116.677 65.5955C116.508 65.074 116.224 64.6893 115.824 64.4416C115.423 64.1939 114.874 64.07 114.176 64.07C113.788 64.07 113.426 64.1287 113.09 64.246C112.767 64.3634 112.483 64.559 112.237 64.8328C111.992 65.0935 111.798 65.4521 111.656 65.9084C111.514 66.3648 111.443 66.9384 111.443 67.6295V70.5435C111.443 71.2345 111.514 71.8147 111.656 72.2841C111.798 72.7404 111.992 73.1055 112.237 73.3793C112.483 73.6401 112.767 73.8291 113.09 73.9465C113.426 74.0638 113.788 74.1225 114.176 74.1225C115.223 74.1225 115.953 73.8487 116.366 73.3011C116.793 72.7404 117.006 71.8538 117.006 70.6413H119.197C119.197 71.7887 119.003 72.76 118.615 73.5553C118.227 74.3507 117.678 74.9569 116.967 75.3742C116.256 75.7914 115.404 76 114.408 76H114.06Z" fill="black"/>
<path d="M128.959 75.8044V63.4442H125.47V61.7036H131.188V75.8044H128.959ZM125.47 75.8044V74.1029H134.445V75.8044H125.47Z" fill="black"/>
<path d="M145.041 75.8044V67.5512H141.571V65.8106H147.29V75.8044H145.041ZM141.571 75.8044V74.1029H150.547V75.8044H141.571ZM145.002 63.7767V61.7623H147.018V63.7767H145.002Z" fill="black"/>
<path d="M161.317 76C160.244 76 159.359 75.7979 158.661 75.3937C157.963 74.9765 157.447 74.3963 157.111 73.6531C156.774 72.8969 156.606 72.0233 156.606 71.0324V70.5826C156.606 69.5656 156.8 68.6856 157.188 67.9424C157.576 67.1992 158.125 66.6255 158.836 66.2213C159.559 65.8171 160.412 65.6151 161.395 65.6151C162.312 65.6151 163.1 65.7976 163.76 66.1627C164.419 66.5277 164.929 67.0297 165.291 67.6686C165.653 68.2944 165.834 69.0245 165.834 69.859V71.2085H158.971V71.5996C158.971 72.5384 159.198 73.2489 159.65 73.7313C160.102 74.2138 160.677 74.455 161.375 74.455C162.138 74.455 162.719 74.2659 163.12 73.8878C163.521 73.5097 163.721 72.9295 163.721 72.1472H165.834C165.834 72.9425 165.646 73.6336 165.272 74.2203C164.897 74.794 164.373 75.2373 163.701 75.5502C163.029 75.8501 162.235 76 161.317 76ZM158.991 69.8199H163.624V69.5265C163.624 69.0702 163.527 68.666 163.333 68.314C163.152 67.9619 162.887 67.6816 162.538 67.473C162.202 67.2644 161.808 67.1601 161.356 67.1601C160.852 67.1601 160.425 67.2839 160.076 67.5317C159.727 67.7794 159.456 68.0988 159.262 68.49C159.081 68.8811 158.991 69.2853 158.991 69.7025V69.8199Z" fill="black"/>
<path d="M172.747 75.8044V65.8106H174.569L174.782 67.1601C175.079 66.6255 175.493 66.2344 176.023 65.9866C176.553 65.7389 177.147 65.6151 177.806 65.6151C178.879 65.6151 179.732 65.9215 180.365 66.5342C181.011 67.134 181.334 68.0141 181.334 69.1745V75.8044H179.066V69.7612C179.066 68.9268 178.892 68.314 178.543 67.9228C178.207 67.5317 177.729 67.3361 177.108 67.3361C176.682 67.3361 176.307 67.4469 175.984 67.6686C175.674 67.8772 175.428 68.1705 175.247 68.5487C175.079 68.9268 174.995 69.3635 174.995 69.859V75.8044H172.747Z" fill="black"/>
<path d="M194.489 76C193.274 76 192.318 75.7392 191.62 75.2177C190.922 74.6831 190.573 73.8031 190.573 72.5775V67.5512H187.782V65.8106H190.651L191.426 62.6228H192.822V65.8106H197.203V67.5512H192.822V72.3819C192.822 72.7991 192.906 73.1512 193.074 73.438C193.242 73.7118 193.494 73.9139 193.83 74.0443C194.179 74.1746 194.618 74.2398 195.148 74.2398C195.549 74.2398 195.924 74.1877 196.273 74.0834C196.635 73.9791 196.945 73.8617 197.203 73.7313V75.4328C196.88 75.6154 196.467 75.7523 195.962 75.8435C195.471 75.9478 194.98 76 194.489 76Z" fill="black"/>
</svg>
