<svg width="419" height="68" viewBox="0 0 419 68" fill="none" xmlns="http://www.w3.org/2000/svg">
<g style="mix-blend-mode:multiply" clip-path="url(#clip0_13_1432)">
<path d="M29.3999 0V58.7" stroke="black" stroke-miterlimit="10"/>
<path d="M0 29.4H58.7" stroke="black" stroke-miterlimit="10"/>
<path d="M108.2 0V27.3" stroke="black" stroke-miterlimit="10"/>
<path d="M108.2 31.4V58.7" stroke="black" stroke-miterlimit="10"/>
<path d="M78.8999 29.4H106.1" stroke="black" stroke-miterlimit="10"/>
<path d="M110.3 29.4H137.6" stroke="black" stroke-miterlimit="10"/>
<path d="M179.2 0V25.2" stroke="black" stroke-miterlimit="10"/>
<path d="M179.2 33.5V58.7" stroke="black" stroke-miterlimit="10"/>
<path d="M149.8 29.4H175" stroke="black" stroke-miterlimit="10"/>
<path d="M183.3 29.4H208.5" stroke="black" stroke-miterlimit="10"/>
<path d="M249.6 0V23.1" stroke="black" stroke-miterlimit="10"/>
<path d="M249.6 35.6V58.7" stroke="black" stroke-miterlimit="10"/>
<path d="M220.3 29.4H243.4" stroke="black" stroke-miterlimit="10"/>
<path d="M255.9 29.4H279" stroke="black" stroke-miterlimit="10"/>
<path d="M323.1 0V21.1" stroke="black" stroke-miterlimit="10"/>
<path d="M323.1 37.6V58.7" stroke="black" stroke-miterlimit="10"/>
<path d="M293.7 29.4H314.8" stroke="black" stroke-miterlimit="10"/>
<path d="M331.4 29.4H352.4" stroke="black" stroke-miterlimit="10"/>
<path d="M389.2 0V19" stroke="black" stroke-miterlimit="10"/>
<path d="M389.2 39.7V58.7" stroke="black" stroke-miterlimit="10"/>
<path d="M359.9 29.4H378.9" stroke="black" stroke-miterlimit="10"/>
<path d="M399.6 29.4H418.6" stroke="black" stroke-miterlimit="10"/>
<path d="M29.3999 67.8V84.7" stroke="black" stroke-miterlimit="10"/>
<path d="M108.2 67.8V82.6" stroke="black" stroke-miterlimit="10"/>
<path d="M179.2 67.8V80.6" stroke="black" stroke-miterlimit="10"/>
<path d="M249.6 67.8V78.5" stroke="black" stroke-miterlimit="10"/>
<path d="M323.1 67.8V76.4" stroke="black" stroke-miterlimit="10"/>
<path d="M389.2 67.8V74.3" stroke="black" stroke-miterlimit="10"/>
</g>
<defs>
<clipPath id="clip0_13_1432">
<rect width="419" height="68" fill="white"/>
</clipPath>
</defs>
</svg>
