<svg width="419" height="58" viewBox="0 0 419 58" fill="none" xmlns="http://www.w3.org/2000/svg">
<g style="mix-blend-mode:multiply" clip-path="url(#clip0_13_1764)">
<path d="M29.3999 -0.200012V16.7" stroke="black" stroke-miterlimit="10"/>
<path d="M29.3999 41.6V58.5" stroke="black" stroke-miterlimit="10"/>
<path d="M0 29.1H16.9" stroke="black" stroke-miterlimit="10"/>
<path d="M41.7998 29.1H58.6998" stroke="black" stroke-miterlimit="10"/>
<path d="M108.2 -0.200012V14.6" stroke="black" stroke-miterlimit="10"/>
<path d="M108.2 43.6V58.5" stroke="black" stroke-miterlimit="10"/>
<path d="M78.8999 29.1H93.6999" stroke="black" stroke-miterlimit="10"/>
<path d="M122.7 29.1H137.6" stroke="black" stroke-miterlimit="10"/>
<path d="M179.2 -0.200012V12.6" stroke="black" stroke-miterlimit="10"/>
<path d="M179.2 45.7V58.5" stroke="black" stroke-miterlimit="10"/>
<path d="M149.8 29.1H162.6" stroke="black" stroke-miterlimit="10"/>
<path d="M195.7 29.1H208.5" stroke="black" stroke-miterlimit="10"/>
<path d="M249.6 -0.200012V10.5" stroke="black" stroke-miterlimit="10"/>
<path d="M249.6 47.8V58.5" stroke="black" stroke-miterlimit="10"/>
<path d="M220.3 29.1H231" stroke="black" stroke-miterlimit="10"/>
<path d="M268.3 29.1H279" stroke="black" stroke-miterlimit="10"/>
<path d="M323.1 -0.200012V8.39999" stroke="black" stroke-miterlimit="10"/>
<path d="M323.1 49.9V58.5" stroke="black" stroke-miterlimit="10"/>
<path d="M293.7 29.1H302.4" stroke="black" stroke-miterlimit="10"/>
<path d="M343.8 29.1H352.4" stroke="black" stroke-miterlimit="10"/>
<path d="M389.2 -0.200012V6.29999" stroke="black" stroke-miterlimit="10"/>
<path d="M389.2 51.9V58.5" stroke="black" stroke-miterlimit="10"/>
<path d="M359.9 29.1H366.4" stroke="black" stroke-miterlimit="10"/>
<path d="M412 29.1H418.6" stroke="black" stroke-miterlimit="10"/>
</g>
<defs>
<clipPath id="clip0_13_1764">
<rect width="419" height="58" fill="white"/>
</clipPath>
</defs>
</svg>
