<svg width="92" height="43" viewBox="0 0 92 43" fill="none" xmlns="http://www.w3.org/2000/svg">
<rect width="91.1407" height="42.1143" transform="translate(0 0.885742)" fill="#12D855"/>
<circle cx="19.4798" cy="21.9429" r="7.33869" fill="#EFEFEF"/>
<path d="M38.7543 27.5776V17.8075H35.9922V16.1976H40.9009V27.5776H38.7543ZM35.9922 27.5776V25.9992H43.442V27.5776H35.9922Z" fill="#EFEFEF"/>
<path d="M50.9015 27.5776V21.1221H48.1552V19.5122H53.0639V27.5776H50.9015ZM48.1552 27.5776V25.9992H55.605V27.5776H48.1552ZM50.9489 17.918V16.1503H52.7482V17.918H50.9489Z" fill="#EFEFEF"/>
<path d="M62.1175 27.5776L59.1659 19.5122H61.4861L63.3959 25.0996H63.4591L65.3847 19.5122H67.4997L64.5166 27.5776H62.1175Z" fill="#EFEFEF"/>
<path d="M75.1959 27.7354C74.291 27.7354 73.5439 27.5723 72.9546 27.2461C72.3654 26.9199 71.9287 26.4569 71.6446 25.8572C71.371 25.2574 71.2342 24.5524 71.2342 23.7422V23.3476C71.2342 22.5163 71.3973 21.8061 71.7235 21.2168C72.0497 20.617 72.5127 20.1593 73.1125 19.8436C73.7228 19.5174 74.4435 19.3543 75.2748 19.3543C76.0429 19.3543 76.7006 19.5016 77.2478 19.7963C77.8054 20.0804 78.2369 20.4855 78.542 21.0116C78.8472 21.5272 78.9997 22.1322 78.9997 22.8267V23.9316H73.507V24.3104C73.507 24.9733 73.6701 25.4731 73.9963 25.8098C74.3331 26.1465 74.754 26.3149 75.259 26.3149C75.8272 26.3149 76.2534 26.1781 76.5375 25.9045C76.8321 25.6309 76.9794 25.21 76.9794 24.6418H78.9997C78.9997 25.2837 78.8419 25.8361 78.5262 26.2991C78.2106 26.7621 77.7686 27.1199 77.2004 27.3724C76.6427 27.6144 75.9745 27.7354 75.1959 27.7354ZM73.5228 22.7005H76.8847V22.4795C76.8847 22.1428 76.8163 21.8481 76.6795 21.5956C76.5428 21.3431 76.3481 21.1431 76.0956 20.9958C75.843 20.838 75.5536 20.7591 75.2275 20.7591C74.8697 20.7591 74.5645 20.8485 74.312 21.0274C74.0595 21.1958 73.8648 21.422 73.728 21.7061C73.5912 21.9797 73.5228 22.269 73.5228 22.5742V22.7005Z" fill="#EFEFEF"/>
</svg>
